<svg width="37.265869" height="6.660950" viewBox="0 0 37.2659 6.66095" fill="none" xmlns="http://www.w3.org/2000/svg" xmlns:xlink="http://www.w3.org/1999/xlink">
	<desc>
			Created with Pixso.
	</desc>
	<defs/>
	<path id="Arrow 2" d="M36.05 3.33L33.58 0.85C33.38 0.65 33.38 0.34 33.58 0.14C33.77 -0.05 34.09 -0.05 34.28 0.14L37.11 2.97C37.31 3.17 37.31 3.48 37.11 3.68L34.28 6.51C34.09 6.71 33.77 6.71 33.58 6.51C33.38 6.31 33.38 6 33.58 5.8L36.05 3.33Z" fill="#FFFFFF" fill-opacity="1.000000" fill-rule="nonzero"/>
	<path id="Arrow 2" d="M35.55 3.83L0 3.83L0 2.83L35.55 2.83L33.58 0.85C33.38 0.65 33.38 0.34 33.58 0.14C33.77 -0.05 34.09 -0.05 34.28 0.14L37.11 2.97C37.31 3.17 37.31 3.48 37.11 3.68L34.28 6.51C34.09 6.71 33.77 6.71 33.58 6.51C33.38 6.31 33.38 6 33.58 5.8L35.55 3.83Z" fill="#FFFFFF" fill-opacity="1.000000" fill-rule="evenodd"/>
</svg>
