<svg width="24.000000" height="24.000000" viewBox="0 0 24 24" fill="none" xmlns="http://www.w3.org/2000/svg" xmlns:xlink="http://www.w3.org/1999/xlink">
	<desc>
			Created with Pixso.
	</desc>
	<defs/>
	<path id="Vector" d="M21.95 13.69L21.95 21.07L17.68 21.07L17.68 14.18C17.68 12.45 17.06 11.27 15.51 11.27C14.33 11.27 13.62 12.07 13.31 12.84C13.2 13.11 13.17 13.5 13.17 13.88L13.17 21.07L8.89 21.07C8.89 21.07 8.95 9.41 8.89 8.2L13.17 8.2L13.17 10.02L13.14 10.06L13.17 10.06L13.17 10.02C13.74 9.15 14.76 7.9 17.03 7.9C19.84 7.9 21.95 9.74 21.95 13.69ZM4.42 2C2.95 2 2 2.95 2 4.22C2 5.45 2.92 6.44 4.36 6.44L4.39 6.44C5.88 6.44 6.81 5.45 6.81 4.22C6.78 2.95 5.88 2 4.42 2L4.42 2ZM2.25 21.07L6.53 21.07L6.53 8.2L2.25 8.2L2.25 21.07Z" fill="#FFFFFF" fill-opacity="1.000000" fill-rule="nonzero"/>
	<rect id="Rectangle 5254" width="24.000000" height="24.000000" fill="#D9D9D9" fill-opacity="0"/>
</svg>
