<svg width="16.000000" height="20.000000" viewBox="0 0 16 20" fill="none" xmlns="http://www.w3.org/2000/svg" xmlns:xlink="http://www.w3.org/1999/xlink">
	<desc>
			Created with Pixso.
	</desc>
	<defs/>
	<path id="Vector" d="M4.75 11.25L5.85 11.25L9.5 7.57L8.42 6.5L4.75 10.14L4.75 11.25ZM10.32 6.75L11 6.07C11.05 6.02 11.07 5.96 11.07 5.88C11.07 5.81 11.05 5.75 11 5.7L10.3 5C10.25 4.95 10.18 4.92 10.11 4.92C10.03 4.92 9.97 4.95 9.92 5L9.25 5.67L10.32 6.75ZM8 18.02C10.21 16 11.85 14.17 12.91 12.53C13.97 10.89 14.5 9.45 14.5 8.2C14.5 6.23 13.87 4.62 12.61 3.37C11.35 2.12 9.81 1.5 8 1.5C6.18 1.5 4.64 2.12 3.38 3.37C2.12 4.62 1.5 6.23 1.5 8.2C1.5 9.45 2.04 10.89 3.12 12.53C4.2 14.17 5.83 16 8 18.02ZM8 20C5.31 17.71 3.31 15.59 1.98 13.63C0.66 11.67 0 9.86 0 8.2C0 5.7 0.8 3.7 2.41 2.22C4.02 0.74 5.88 0 8 0C10.11 0 11.97 0.74 13.58 2.22C15.19 3.7 16 5.7 16 8.2C16 9.86 15.33 11.67 14.01 13.63C12.68 15.59 10.68 17.71 8 20Z" fill="#000000" fill-opacity="1.000000" fill-rule="evenodd"/>
</svg>
