<svg width="24.000000" height="24.000000" viewBox="0 0 24 24" fill="none" xmlns="http://www.w3.org/2000/svg" xmlns:xlink="http://www.w3.org/1999/xlink">
	<desc>
			Created with Pixso.
	</desc>
	<defs/>
	<path id="Vector" d="M22 5.89C21.25 6.21 20.45 6.43 19.64 6.52C20.49 6.02 21.13 5.23 21.44 4.29C20.63 4.76 19.75 5.09 18.84 5.27C18.45 4.87 17.98 4.54 17.47 4.32C16.95 4.1 16.4 3.99 15.84 4C13.58 4 11.74 5.81 11.74 8.04C11.74 8.35 11.77 8.66 11.84 8.96C10.22 8.88 8.63 8.46 7.17 7.74C5.72 7.01 4.43 5.99 3.39 4.73C3.02 5.35 2.83 6.05 2.83 6.76C2.83 7.43 3 8.09 3.32 8.68C3.64 9.26 4.1 9.76 4.66 10.13C4.01 10.11 3.37 9.93 2.8 9.62L2.8 9.67C2.8 11.63 4.21 13.26 6.09 13.63C5.74 13.73 5.37 13.77 5.01 13.77C4.75 13.77 4.49 13.75 4.24 13.7C4.51 14.51 5.02 15.21 5.7 15.71C6.39 16.22 7.22 16.49 8.07 16.51C6.61 17.63 4.82 18.24 2.97 18.23C2.64 18.23 2.32 18.21 2 18.18C3.88 19.37 6.06 20 8.28 20C15.83 20 19.96 13.84 19.96 8.5L19.94 7.98C20.75 7.41 21.44 6.7 22 5.89Z" fill="#FFFFFF" fill-opacity="1.000000" fill-rule="nonzero"/>
	<rect id="Rectangle 5252" width="24.000000" height="24.000000" fill="#D9D9D9" fill-opacity="0"/>
	<rect id="Rectangle 5251" width="24.000000" height="24.000000" fill="#D9D9D9" fill-opacity="0"/>
</svg>
