<svg width="24.000000" height="24.000000" viewBox="0 0 24 24" fill="none" xmlns="http://www.w3.org/2000/svg" xmlns:xlink="http://www.w3.org/1999/xlink">
	<desc>
			Created with Pixso.
	</desc>
	<defs/>
	<path id="Vector" d="M17.81 5L6.14 5C3.85 5 2 6.83 2 9.1L2 14.86C2 17.13 3.85 18.96 6.14 18.96L17.81 18.96C20.1 18.96 21.95 17.13 21.95 14.86L21.95 9.1C21.95 6.83 20.1 5 17.81 5L17.81 5ZM15 12.26L9.55 14.83C9.51 14.85 9.48 14.86 9.44 14.86C9.4 14.85 9.37 14.84 9.34 14.82C9.3 14.8 9.28 14.78 9.26 14.74C9.24 14.71 9.23 14.67 9.23 14.64L9.23 9.33C9.23 9.29 9.24 9.26 9.26 9.22C9.28 9.19 9.31 9.16 9.34 9.14C9.37 9.13 9.41 9.11 9.44 9.11C9.48 9.11 9.52 9.12 9.55 9.14L15.01 11.87C15.05 11.89 15.08 11.92 15.1 11.95C15.12 11.99 15.13 12.03 15.13 12.07C15.13 12.11 15.12 12.15 15.09 12.18C15.07 12.22 15.04 12.24 15 12.26L15 12.26Z" fill="#FFFFFF" fill-opacity="1.000000" fill-rule="nonzero"/>
	<rect id="Rectangle 5249" width="24.000000" height="24.000000" fill="#D9D9D9" fill-opacity="0"/>
</svg>
